<svg xmlns="http://www.w3.org/2000/svg" width="500" height="105">
  <g fill="#FFF" fill-rule="evenodd">
    <path d="M391.868 4.102c13.056-16.402 111.54 26.274 107.189 45.382-4.352 19.109-53.675 57.326-81.238 55.096-27.104-2.192-39.007-84.077-25.951-100.478zm7.266 16.748c-8.846 12.934 7.191 74.871 28.628 74.042 21.274-.823 56.288-32.878 58.886-48.488 2.599-15.61-78.668-38.488-87.514-25.554z"/>
    <path d="M407.737 25.52s17.73-.717 37.396 3.901c19.664 4.618 35.219 11.386 33.688 18.47-3.006 13.91-32.238 25.48-32.238 25.48s17.408-12.9 16.119-25.48c-1.29-12.578-54.965-22.371-54.965-22.371zM34.186 72.453c-1.44 4.187-3.412 7.546-5.917 10.077-2.504 2.53-5.916 3.796-10.237 3.796-3.005 0-5.635-.78-7.889-2.343-2.254-1.562-4.132-3.797-5.635-6.702-1.503-2.906-2.63-6.453-3.381-10.64C.376 62.454 0 57.736 0 52.487c0-5.187.391-9.874 1.174-14.061.783-4.187 1.941-7.75 3.475-10.686 1.534-2.937 3.428-5.187 5.682-6.75 2.254-1.562 4.884-2.343 7.89-2.343 4.132 0 7.403 1.219 9.814 3.656 2.41 2.437 4.398 5.905 5.964 10.405l-5.917 2.625c-1.378-4-2.802-6.765-4.274-8.296-1.471-1.531-3.365-2.297-5.682-2.297-3.631 0-6.464 2.375-8.5 7.124-2.034 4.75-3.052 11.624-3.052 20.623 0 9.186 1.049 16.107 3.147 20.763 2.097 4.656 4.993 6.983 8.687 6.983 2.442 0 4.446-.843 6.01-2.53 1.566-1.688 3.006-4.344 4.321-7.968l5.447 2.718zm41.606-11.905c0 4.187-.407 7.89-1.22 11.108-.815 3.219-1.973 5.906-3.476 8.062-1.502 2.156-3.287 3.796-5.353 4.921-2.066 1.125-4.352 1.687-6.856 1.687-5.072 0-9.126-2.156-12.163-6.468-3.036-4.312-4.555-10.686-4.555-19.122 0-8.437 1.55-14.827 4.65-19.17 3.099-4.343 7.184-6.515 12.256-6.515 5.071 0 9.126 2.156 12.162 6.468 3.037 4.312 4.555 10.655 4.555 19.03zm-6.48.094c0-6.687-.924-11.64-2.77-14.858-1.848-3.218-4.4-4.827-7.655-4.827-3.256 0-5.776 1.609-7.56 4.827-1.785 3.219-2.677 8.171-2.677 14.858 0 6.687.908 11.655 2.723 14.904 1.816 3.25 4.352 4.875 7.608 4.875 3.256 0 5.791-1.625 7.607-4.875 1.816-3.25 2.724-8.217 2.724-14.904zm39.727 24.653v-4.218c-1.314 1.437-2.864 2.672-4.649 3.703-1.784 1.03-3.835 1.546-6.151 1.546-4.508 0-7.952-2.124-10.331-6.374-2.38-4.25-3.57-10.53-3.57-18.841 0-8.5 1.269-14.967 3.805-19.404 2.535-4.437 6.12-6.656 10.753-6.656 2.192 0 4.101.453 5.73 1.36 1.627.906 3.099 2.046 4.413 3.421V20.709l6.387-3.75v68.336h-6.387zm0-39.37c-1.252-1.5-2.676-2.718-4.273-3.656-1.596-.937-3.397-1.406-5.4-1.406-3.13 0-5.354 1.828-6.668 5.484-1.315 3.656-1.973 8.546-1.973 14.67 0 6.624.752 11.53 2.254 14.717 1.503 3.187 3.757 4.78 6.763 4.78 1.815 0 3.49-.453 5.024-1.359 1.534-.906 2.959-2.078 4.273-3.515V45.925zm48.368 14.436v1.406c0 .375-.03.75-.093 1.125H132.33c.25 5.312 1.174 9.561 2.77 12.748 1.597 3.187 3.93 4.78 6.998 4.78 2.003 0 3.772-.421 5.306-1.265 1.534-.843 3.146-2.265 4.837-4.265l3.85 4.125c-2.128 2.374-4.32 4.187-6.574 5.437-2.254 1.25-4.852 1.874-7.795 1.874-2.129 0-4.148-.515-6.058-1.546-1.91-1.031-3.569-2.594-4.977-4.687-1.41-2.094-2.536-4.75-3.381-7.968-.846-3.218-1.268-7.015-1.268-11.39 0-8.186 1.44-14.513 4.32-18.981 2.88-4.469 6.762-6.703 11.646-6.703 5.009 0 8.828 2.25 11.458 6.75 2.63 4.499 3.944 10.686 3.944 18.56zm-6.198-3.187c-.125-2.375-.391-4.547-.798-6.515-.407-1.969-.987-3.672-1.738-5.109-.751-1.437-1.706-2.562-2.864-3.375-1.159-.812-2.49-1.218-3.992-1.218-2.63 0-4.774 1.297-6.433 3.89-1.66 2.593-2.646 6.702-2.959 12.327h18.784zM197.898 70.39c0 2.313-.36 4.453-1.08 6.422-.72 1.968-1.77 3.656-3.147 5.062-1.377 1.406-3.052 2.5-5.024 3.28-1.973.782-4.18 1.172-6.622 1.172-4.132 0-7.497-1.14-10.096-3.421-2.598-2.281-4.618-5.484-6.058-9.608l6.011-2.719c1.252 3.187 2.692 5.593 4.32 7.218 1.628 1.625 3.632 2.437 6.011 2.437 2.818 0 5.04-.828 6.668-2.484 1.628-1.656 2.442-3.859 2.442-6.608 0-3.187-.814-6.156-2.442-8.905-1.628-2.75-4.602-5.656-8.922-8.718-2.317-1.625-4.289-3.172-5.917-4.64-1.628-1.469-2.942-2.984-3.944-4.547a16.742 16.742 0 0 1-2.16-4.92c-.439-1.72-.658-3.672-.658-5.86 0-2.124.345-4.093 1.033-5.905.689-1.812 1.66-3.39 2.912-4.734 1.252-1.343 2.786-2.39 4.602-3.14 1.816-.75 3.82-1.125 6.01-1.125 2.004 0 3.789.25 5.354.75s2.943 1.234 4.132 2.203a16.984 16.984 0 0 1 3.194 3.468c.939 1.344 1.815 2.86 2.63 4.547l-5.636 3.187c-1.315-2.625-2.708-4.625-4.18-6-1.47-1.374-3.396-2.062-5.775-2.062-1.315 0-2.458.234-3.428.703a6.588 6.588 0 0 0-2.395 1.922 8.648 8.648 0 0 0-1.409 2.718c-.313 1-.47 2-.47 3 0 1.312.126 2.546.376 3.703.25 1.156.751 2.327 1.503 3.515.751 1.187 1.8 2.406 3.146 3.656 1.346 1.25 3.084 2.624 5.213 4.124 2.504 1.687 4.633 3.375 6.386 5.062 1.753 1.687 3.178 3.437 4.273 5.25a20.864 20.864 0 0 1 2.395 5.67c.501 1.969.752 4.078.752 6.328zm42.169-10.123c0 8.499-1.284 14.967-3.85 19.404-2.568 4.437-6.168 6.655-10.801 6.655-2.192 0-4.101-.453-5.73-1.359a16.967 16.967 0 0 1-4.32-3.421v18.091l-6.386 3.75V36.082h6.386v4.219c1.253-1.438 2.771-2.672 4.556-3.703 1.784-1.031 3.834-1.547 6.151-1.547 4.508 0 7.968 2.125 10.378 6.375s3.616 10.53 3.616 18.841zm-6.386.094c0-6.624-.752-11.53-2.254-14.717-1.503-3.187-3.757-4.78-6.763-4.78a9.951 9.951 0 0 0-5.071 1.358c-1.566.906-2.974 2.078-4.227 3.516v29.715c1.253 1.5 2.677 2.718 4.274 3.655 1.596.938 3.396 1.407 5.4 1.407 1.565 0 2.896-.47 3.992-1.407 1.095-.937 1.988-2.28 2.676-4.03.689-1.75 1.19-3.875 1.503-6.375.313-2.5.47-5.28.47-8.342zm37.097-17.623c-.876-.5-1.768-.875-2.676-1.125-.908-.25-1.988-.375-3.24-.375-1.566 0-3.037.547-4.415 1.64a13.86 13.86 0 0 0-3.38 3.89v38.527h-6.387V36.082h6.386v4.219c1.002-1.438 2.333-2.672 3.992-3.703 1.66-1.031 3.49-1.547 5.494-1.547 1.44 0 2.63.094 3.569.282.94.187 1.753.437 2.442.75l-1.785 6.655zm18.315-20.623c0 1.25-.423 2.344-1.268 3.281-.846.938-1.863 1.406-3.053 1.406-1.252 0-2.332-.468-3.24-1.406-.908-.937-1.362-2.03-1.362-3.28s.454-2.344 1.362-3.281c.908-.938 1.988-1.407 3.24-1.407 1.19 0 2.207.47 3.053 1.407.845.937 1.268 2.03 1.268 3.28zm-7.702 63.18V36.082h6.387v49.213h-6.387zm42.827 0V52.3c0-4.062-.626-6.983-1.878-8.764-1.253-1.781-3.287-2.672-6.105-2.672-2.004 0-3.741.578-5.213 1.734a19.12 19.12 0 0 0-3.803 3.984v38.714h-6.387V36.082h6.387v4.125c1.064-1.375 2.473-2.578 4.226-3.609 1.753-1.031 3.882-1.547 6.387-1.547 4.195 0 7.388 1.375 9.58 4.125 2.19 2.75 3.286 6.874 3.286 12.373v33.746h-6.48zm35.595-.375c-1.064.5-2.191.86-3.38 1.078-1.19.219-2.505.328-3.945.328-2.818 0-4.884-.859-6.2-2.577-1.314-1.719-1.971-4.328-1.971-7.828V41.52h-5.072v-5.437h5.072V20.71l6.292-3.75v19.123h9.486v5.437h-9.486v33.746c0 1.812.313 3.11.94 3.89.625.781 1.565 1.172 2.817 1.172 1.127 0 2.144-.094 3.052-.281.908-.188 1.894-.531 2.959-1.031l-.564 5.905z"/>
  </g>
</svg>
