<svg xmlns="http://www.w3.org/2000/svg" width="500" height="151">
  <path fill="#FFF" fill-rule="evenodd" d="M484.746 102.848c-1.61-4.923-4.486-8.88-8.628-11.871-4.05-3.083-8.674-4.625-13.873-4.625-5.2 0-9.825 1.542-13.874 4.625-4.187 3.129-7.063 7.086-8.628 11.871h45.003zm15.254 7.04c0 2.348-.207 4.694-.621 7.041h-59.636c1.61 4.924 4.487 8.904 8.628 11.941 4.141 3.037 8.766 4.556 13.874 4.556 8.374 0 15.139-3.889 20.292-11.665l11.872 7.8c-7.96 11.871-18.682 17.807-32.164 17.807-10.354 0-19.235-3.635-26.643-10.905-7.363-7.363-11.044-16.22-11.044-26.574 0-10.354 3.681-19.211 11.044-26.574 7.408-7.408 16.29-11.113 26.643-11.113 10.353 0 19.234 3.705 26.642 11.113C496.296 90.724 500 99.581 500 109.89zm-87.71 1.146c-1.571 6.112-1.914 8.297-2.67 14.178 1.037.17 5.332-.15 4.876 4.369-.456 4.518-4.362 3.196-5.376 3.2-1.32 11.78-1.137 17.412-1.137 17.412h-17.559s.13-6.258 2.198-19.586c-1.076-.145-5.045-.657-4.21-4.625.835-3.969 4.018-2.634 5.119-2.547.98-5.82 1.57-8.786 3.331-15.79-1.019-.256-5.03-1.252-3.835-4.975 1.195-3.724 4.412-2.3 5.448-2.187 1.588-5.43 3.019-8.008 5.223-13.097-.946-.346-3.912-2.14-2.652-4.688 1.26-2.547 4.097-1.22 5.123-.997 2.29-5.123 3.63-7.544 5.768-12.525-.726-.372-2.95-1.916-1.845-4.022 1.106-2.106 3.498-1.145 4.489-1.07 2.126-4.555 3.424-7.117 5.094-12.178-.72-.298-2.943-1.101-2.177-3.306.765-2.204 2.877-1.234 3.8-1.338.961-2.599 1.974-5.915 1.787-9.73-.008-.154-2.995.365-3.007-2.089-.011-2.453 1.949-2.267 2.833-2.487-.333-3.577-.724-5.45-1.416-8.504-.756-.067-2.188.912-2.729-.941-.54-1.853 1.082-2.47 1.784-2.784-.858-3.217-1.862-4.948-2.88-7.457-.75-.064-1.674.405-2.368-1.137s.825-2.202 1.277-2.561C413.758 3.352 411.1 0 411.1 0s3.36 3.22 7.422 8.506c.831-.003 1.723-.806 2.766.638 1.043 1.445-.084 2.196-.291 2.512 1.89 2.627 3.053 4.638 4.561 7.649.946-.12 2.674-.71 3.177 1.033.503 1.742-1.595 2.335-1.548 2.452 1.483 3.69 2.596 6.615 3.275 9.628 1.66.207 2.802.132 3.263 2.12.462 1.987-.545 2.355-2.38 2.604.563 3.927.469 7.289-.097 12.461 1.003.166 2.715.807 2.576 2.892-.14 2.086-2.038 2.273-3.291 1.945-.226 1.597-.324 1.281-.864 3.738-.897 4.08-1.776 5.772-3.026 9.948 1.095.221 3.317 1.276 2.526 3.773-.79 2.497-2.988 1.57-4.212 1.323-2.042 5.153-2.608 7.258-4.754 12.986.805.393 4.001 1.406 2.929 4.31-1.072 2.904-4.314 1.582-5.193 1.554-1.692 4.63-2.296 6.567-3.846 11.927 1.023.254 4.443.474 3.73 4.41-.713 3.934-4.492 2.742-5.532 2.625zm-53.941 0c-1.04.117-4.82 1.309-5.532-2.626-.713-3.935 2.707-4.155 3.73-4.41-1.55-5.36-2.154-7.295-3.847-11.926-.878.028-4.12 1.35-5.192-1.554s2.124-3.917 2.929-4.31c-2.146-5.728-2.712-7.833-4.754-12.986-1.224.247-3.422 1.174-4.212-1.323-.79-2.497 1.43-3.552 2.525-3.773-1.25-4.176-2.128-5.868-3.025-9.948-.54-2.457-.638-2.14-.864-3.738-1.253.328-3.151.14-3.29-1.945-.14-2.085 1.572-2.726 2.575-2.892-.566-5.172-.66-8.534-.096-12.461-1.836-.25-2.843-.617-2.381-2.605.461-1.987 1.603-1.912 3.262-2.119.68-3.013 1.793-5.938 3.276-9.628.047-.117-2.052-.71-1.548-2.452.503-1.742 2.231-1.154 3.177-1.033 1.508-3.011 2.67-5.022 4.561-7.65-.207-.315-1.334-1.066-.291-2.51 1.043-1.445 1.935-.642 2.766-.639C356.18 3.22 359.54 0 359.54 0s-2.659 3.352-5.48 9.572c.451.36 1.971 1.02 1.277 2.561-.694 1.542-1.619 1.073-2.369 1.137-1.018 2.509-2.02 4.24-2.88 7.457.703.314 2.326.93 1.785 2.784-.541 1.853-1.973.874-2.73.941-.69 3.054-1.082 4.927-1.415 8.504.884.22 2.844.034 2.833 2.487-.012 2.454-3 1.935-3.007 2.09-.187 3.814.826 7.13 1.788 9.729.922.104 3.033-.866 3.8 1.338.765 2.205-1.459 3.008-2.178 3.306 1.67 5.06 2.968 7.623 5.094 12.178.991-.075 3.383-1.036 4.489 1.07 1.106 2.106-1.119 3.65-1.845 4.022 2.139 4.98 3.477 7.402 5.767 12.525 1.027-.224 3.864-1.55 5.124.997 1.26 2.548-1.706 4.342-2.652 4.688 2.204 5.089 3.635 7.668 5.222 13.097 1.037-.114 4.253-1.537 5.449 2.187 1.195 3.723-2.816 4.719-3.835 4.975 1.761 7.004 2.35 9.97 3.331 15.79 1.1-.087 4.283-1.422 5.118 2.547.836 3.968-3.133 4.48-4.209 4.625 2.067 13.328 2.198 19.586 2.198 19.586h-17.56s.183-5.632-1.136-17.412c-1.014-.004-4.92 1.318-5.376-3.2-.456-4.518 3.84-4.199 4.876-4.369-.756-5.88-1.099-8.066-2.67-14.178zm-29.111-8.186c-1.61-4.923-4.486-8.88-8.628-11.871-4.05-3.083-8.674-4.625-13.873-4.625-5.2 0-9.825 1.542-13.874 4.625-4.187 3.129-7.063 7.086-8.628 11.871h45.003zm15.254 7.04c0 2.348-.207 4.694-.621 7.041h-59.636c1.61 4.924 4.487 8.904 8.628 11.941 4.141 3.037 8.766 4.556 13.874 4.556 8.374 0 15.139-3.889 20.292-11.665l11.872 7.8c-7.96 11.871-18.682 17.807-32.164 17.807-10.354 0-19.235-3.635-26.643-10.905-7.363-7.363-11.044-16.22-11.044-26.574 0-10.354 3.681-19.211 11.044-26.574 7.408-7.408 16.29-11.113 26.643-11.113 10.353 0 19.234 3.705 26.642 11.113 7.409 7.409 11.113 16.266 11.113 26.574zm-122.17 22.364h37.341v13.943h-63.225l38.239-58.67h-37.341v-14.15h63.293l-38.307 58.877zm-54.39-22.363c0-6.396-2.324-11.918-6.971-16.566-4.648-4.647-10.193-6.97-16.635-6.97-6.442 0-11.987 2.323-16.634 6.97-4.602 4.602-6.902 10.124-6.902 16.566 0 6.488 2.3 12.033 6.902 16.634 4.601 4.602 10.146 6.903 16.634 6.903 6.489 0 12.033-2.301 16.635-6.903 4.647-4.647 6.971-10.192 6.971-16.634zm0 36.306v-8.628c-6.948 6.534-15.208 9.801-24.779 9.801-10.17 0-18.797-3.681-25.884-11.044-7.086-7.362-10.629-16.174-10.629-26.435 0-10.308 3.543-19.142 10.63-26.505 7.086-7.454 15.714-11.182 25.883-11.182 9.571 0 17.83 3.336 24.78 10.009v-8.835h14.149v72.819h-14.15zM79.86 80.07c-3.451-5.246-7.845-9.433-13.183-12.562-5.338-3.175-11.067-4.763-17.187-4.763-9.663 0-17.969 3.474-24.917 10.423-6.948 6.948-10.422 15.254-10.422 24.917 0 9.663 3.474 17.969 10.422 24.917s15.254 10.423 24.917 10.423c11.09 0 20.27-4.464 27.54-13.39v-14.84H48.316v-14.15h42.863v55.149h-14.15v-8.766c-6.856 6.626-16.036 9.94-27.54 9.94-13.482 0-25.101-4.81-34.856-14.427C4.878 123.187 0 111.568 0 98.086c0-13.437 4.878-25.032 14.633-34.787 9.755-9.756 21.374-14.633 34.856-14.633 8.421 0 16.474 2.14 24.158 6.419 7.317 4.28 13.368 10.054 18.153 17.324l-11.94 7.662z"/>
</svg>
