<svg xmlns="http://www.w3.org/2000/svg" width="32" height="32">
  <g fill="none" fill-rule="evenodd" transform="translate(-1 -1)">
    <circle cx="17" cy="17" r="16" fill="#C8C8C8"/>
    <path fill="#E0E0E0" d="M25.714 3.581C18.304-1.23 8.394.875 3.581 8.286c-4.812 7.41-2.706 17.32 4.705 22.133L25.714 3.58z"/>
    <circle cx="17" cy="17" r="11" fill="#F8B517"/>
    <circle cx="17" cy="17" r="11" fill="#AEAEAE"/>
    <path fill="#D0CACA" d="M21.79 9.719a8.64 8.64 0 0 0-9.412 14.492L21.789 9.72z"/>
    <path fill="#FFF" d="M17.22 21.617l-5.426 3.01 1.036-6.377-4.39-4.517 6.067-.93L17.22 7l2.713 5.803 6.067.93-4.39 4.517 1.036 6.378z"/>
  </g>
</svg>
