<svg version="1" xmlns="http://www.w3.org/2000/svg" width="933.333" height="933.333" viewBox="0 0 700.000000 700.000000"><path d="M466.8 63.2c4.1 5.8 7 10.8 13.9 24.5l4.7 9.2-2.6 2c-3.5 2.8-4.3 6.5-2.1 10.2 1.7 2.8 2.7 3.4 7.7 4.1 2 .3 7.4 11.6 11.6 24.3l2.2 6.6-3.8 3.3c-3.2 2.8-3.8 3.9-3.7 7.2.2 5.2 3.1 7.6 8.3 6.8l3.7-.6.8 4.8c.5 2.7.9 5.1 1 5.4 1.1 4.2 1.7 8.1 3 18.9.3 2.3.7 4.7 1 5.1.7 1.2-1.6 2.7-5.2 3.4-3.7.8-5 2.2-6.3 6.6-.7 2.3-.5 4.2.4 6.5 1.5 3.6 3.8 4.7 11 5.4.9.1.2 16.1-.8 21.6-.4 1.6-1.8 6.9-3.2 11.6l-2.6 8.5-5.6-.2c-4.9-.2-5.9.1-8.4 2.6-4.2 4.2-4 9.8.6 13.8 1.9 1.6 4 3.2 4.7 3.4 1.1.4 1 1.4-.3 5.4-3.1 9.4-6.7 18.3-13.3 32.8-5.6 12.1-7.1 14.6-8.5 14.1-3.8-1.2-11-.7-13.6.9-2.7 1.9-5.4 7-4.9 9.5.2.9.4 2.1.4 2.8.1.7 2 3.1 4.2 5.3l4.1 4.1-4.5 10.2c-14.8 33-19.4 42.2-21.3 42.1-1.1-.1-4.2-.4-7.1-.8-8.6-1.2-14.3 3.5-14.3 11.6 0 4.8 5.4 11.8 10.3 13.4 1.9.6 2.1 1.7.7 4.2-2.7 4.7-13.2 30.1-17 41-3.4 9.7-4.6 12.1-5.9 11.8-9.7-2.9-16.8-.4-20.1 6.9-4 8.8-1.7 16.1 6.6 20.7 2.7 1.5 5.7 2.8 6.7 2.8 2.1 0 2.1-.8-.4 9.7-1.1 4.8-2.3 9.9-2.5 11.3-.3 1.4-1 4.3-1.6 6.5-.5 2.2-1.2 4.9-1.4 6-.2 1.1-.8 4-1.3 6.5s-1.7 8.5-2.6 13.5c-3 16.6-1.8 14.7-8.5 14-7.6-.8-11.5 1.1-14 6.8-5.5 12.5-.6 21.6 13 24.2 1.2.2 2.4.6 2.6.8.2.2-.1 3-.6 6.3-.5 3.2-1.2 8.1-1.5 10.9-.3 2.7-1 7.5-1.5 10.5s-1.2 8.4-1.5 12c-.3 3.6-.8 8.3-1.2 10.5-.7 5.1-1 7.7-1.8 20.5-.4 5.8-.8 10.9-.9 11.5-.1.7 13 1 37.4 1h37.5l.1-2.5c.1-1.4.5-10.4.8-20 .4-9.6.8-18.9 1.1-20.5.4-3.5 1.3-12.1 2.1-22 .4-3.9 1-7.4 1.5-7.9s3.3-.9 6.3-.7c9.6.4 15.5-5 15.8-14.6.4-10.9-3.3-15.6-14.2-17.6l-6.2-1.2.6-4.5c.3-2.5.8-5.4 1-6.5.2-1.1.7-4.3 1-7 1.3-10.1 5.4-30.6 8.2-40.5.3-1.3 1.7-1.5 7.1-1.2 8.5.5 12.4-1.4 15.3-7.3 2.3-4.8 2.6-10.2.6-14.8-1.6-3.9-4.7-6.1-10.5-7.7-3.3-.9-4.2-1.5-3.8-2.8.3-.9 2.1-7.1 4.1-13.7 2-6.6 5.4-17.2 7.6-23.5l4-11.5h8.4c7.3 0 8.8-.3 10.4-2.1 3-3.2 4.2-6 4.2-9.9 0-4.7-2.2-7.8-7.8-11.1-2.6-1.5-4.8-2.8-4.9-2.9-.2-.1 6.6-19.3 18.9-52.7.8-2.4 1.4-2.7 3.6-2.1 5.8 1.4 10.4.7 12.8-2.1 5.4-6.2 3.7-14.9-3.6-18.6-2.2-1.1-4-2.4-4-2.8 0-.5 1.6-5.5 3.5-11.3 3.1-9 6.7-21.2 8-26.7 2.3-9.6 4.5-18.8 4.5-19.3 0-.3 1.4-.3 3.2-.1 12.2 1.8 15.2-15.7 3.4-19.9l-3.4-1.2.7-6.6c.3-3.6.6-15.7.6-26.9 0-17.4.2-20.2 1.5-20.2.8 0 3-.9 4.8-2 2.7-1.7 3.2-2.6 3.2-5.7 0-7-5.4-12.3-12.7-12.3-.6 0-2.6-4.6-4.3-10.2-1.8-5.6-4.9-14.7-7.1-20.3l-3.9-10 2.5-2.2c3.4-3 4.7-6.7 3.5-9.7-1.2-3.3-4.3-4.8-9.2-4.4l-4.1.2-4-7.4c-2.2-4.1-6.6-11.4-9.7-16.2-4.7-7.2-5.5-9-4.4-9.9 2.2-1.8 1.7-7.4-.9-10.4-1.7-2-3.2-2.7-6.1-2.7-2 0-4 .3-4.3.6-.3.3-2.3-1.8-4.5-4.7-5.2-7-24-28.4-25.5-29.1-.7-.3.4 1.8 2.5 4.6zM234.1 65.9c-8.9 9.9-10.5 11.7-16.8 19.7-5 6.5-5.8 7.1-8.2 6.4-3.9-1-7.6.7-9.6 4.4-1.7 3.1-1.7 3.5-.1 6.6l1.6 3.3-5.9 9.1c-3.2 5-6.9 11.1-8.1 13.6-4.5 9-5.5 9.8-10.3 9.3-3.7-.4-4.8-.1-6.6 1.8-3.1 3.4-2.7 7.4 1.1 10.9 3.1 2.9 3.2 3.1 1.9 6.7-1.4 4.2-2.3 6.6-3.9 10.3-1.5 3.2-6.8 19.8-7.7 23.8-.5 2.5-1.3 3.1-4.1 3.7-5.5 1-8.2 2.5-9.3 5.4-3.2 7.7-1.9 11.6 4.4 13.3l4.5 1.2-.7 5.6c-.8 6.8-.7 28.7.2 39.6l.7 8.2-3.6 1.2c-6.6 2.2-9.2 10.4-5.1 16.6 1.5 2.3 6.4 3.9 9.9 3.2 1.5-.2 2.4 2.4 6.1 16.7 2.4 9.3 6.2 22.4 8.4 28.9 3.9 11.7 4.1 13.6 1.9 13.6-2.4 0-7.8 5.2-8.6 8.3-1.1 4 .3 9.6 3 12.1 1.9 1.8 9.6 2.4 13.7 1.1 1.3-.4 2.2 1.1 4.1 6.8 1.3 3.9 2.7 7.9 3.1 8.7 1.6 3.4 13.9 37.6 13.9 38.8 0 .4-1.3 1.6-3 2.5-5.8 3.4-8.8 6.7-9.4 10.1-.8 4.4 1.2 9.5 5 12.5 2.6 2.1 3.7 2.2 10.5 1.8l7.5-.6 1.4 4.7c.7 2.6 1.7 5.4 2.1 6.2.8 1.5 4.5 12.9 9.7 30l2.9 9.5-5.9 2.1c-8.3 3-11 7.3-10.1 15.9 1 9.4 6.8 13.9 17.1 13.3 6.5-.3 6.5-.3 7.4 2.7.8 2.9 4.5 18.8 5.4 23 .2 1.1.6 3.1.9 4.5.2 1.4.7 4.7 1.1 7.5.3 2.7.8 5.7.9 6.7.2.9.6 3.8 1 6.5.4 2.6.8 5.8 1 7.1.3 1.7-.1 2.2-1.8 2.3-5.2.3-7 .7-10.5 2.3-5.9 2.8-7.7 6-7.7 14.1 0 12 5.1 17 16.6 16.3 4.8-.3 5.9-.1 6 1.2.1.8.3 2.4.4 3.5.2 1.1.6 5.6.9 10 .3 4.4.8 8.9 1 10.1.6 3.2 2.3 32.6 2.5 44.1l.1 5.3h75l-.5-8.8c-.3-4.8-.8-10.5-1-12.7-.2-2.2-.7-6.7-1-10-.3-3.3-.8-7.4-1-9-.2-1.7-.9-7.1-1.5-12-.6-5-1.3-9.7-1.5-10.5-.2-.8-.7-4-1-7-.4-3-1-7.4-1.4-9.7l-.8-4.1 3.5-.7c4.7-.9 10.2-3.8 12.7-6.7 2.5-3 2.7-12.8.2-17.8-2.5-5.1-5.2-6.4-12.9-6.5-3.6 0-6.8-.2-7.1-.5-.3-.3-.7-2.3-1.1-4.5-.6-4.6-.9-5.7-4.2-22.5-1.4-6.9-3-14.3-3.6-16.5-.5-2.2-1.1-4.7-1.3-5.5-.2-.8-1-4.6-1.9-8.3-.9-3.8-1.6-7.4-1.6-8.1 0-.6 2.2-2 4.9-3 8.6-3.1 12.7-9.2 11.2-17.1-2-10.6-9.6-15-21.2-12.2-2.3.5-2.6 0-5.5-9.1-2.8-8.6-12.6-32.4-17.4-42.4l-1.8-3.7 2.7-1.7c8.5-5.4 11.3-11.1 8.7-17.9-2.4-6.2-6.8-8.2-15-6.7-4.7.9-6.3.9-7.2-.1-1.1-1-22.4-47-23.5-50.5-.3-.8 1.5-3.3 3.8-5.7 3.2-3.1 4.3-5 4.3-7.3 0-8.8-7-13.1-17.8-10.8-2.1.5-2.8-.4-6.7-8.7-7.7-16.6-9.2-20.1-12.8-29.7-5.3-14.4-5.2-13.6-1.7-15 4.6-1.9 7.3-6.3 6.6-10.5-1.2-6.1-3.6-7.9-10.7-8l-6.2-.1-1.8-5.5c-2.9-8.5-4.9-19.4-5.3-28l-.3-7.8 4.3-.7c6.8-1 9.7-5.9 7.8-12.9-.6-2.5-3.7-4.6-7.9-5.5-2.4-.5-3-1.1-2.9-3.1.3-5.2 1.6-14.8 3-21.9 2.6-13.2 2.1-12.3 5.4-11.6 4.8.9 7.8-.8 8.6-4.9.8-4.6-.7-8-4.5-9.9l-2.9-1.6 1.7-5.7c1-3.2 3.7-10.4 6.1-16.1 4-9.6 4.4-10.2 7.2-10.2 3.8 0 7.8-4 7.8-7.9 0-2-1-3.9-3-5.7l-2.9-2.8 6.4-12.3c7.1-13.6 8.6-16.1 12.8-21.6 4.8-6.2 1.5-4.2-5.2 3.2z"/></svg>